REM Ripping Tool: trurip

FILE "Psychic Detective Series Vol. 3 - Aya (1992)(Data West)(JP).img" BINARY
  TRACK 01 AUDIO
    INDEX 01 00:00:00
  TRACK 02 MODE1/2352
    INDEX 00 00:44:66
    INDEX 01 00:47:65
  TRACK 03 AUDIO
    INDEX 00 02:29:00
    INDEX 01 02:31:00
  TRACK 04 AUDIO
    INDEX 01 02:58:58
  TRACK 05 AUDIO
    INDEX 01 04:33:25
  TRACK 06 AUDIO
    INDEX 01 07:58:73
  TRACK 07 AUDIO
    INDEX 01 12:45:18
  TRACK 08 AUDIO
    INDEX 01 15:59:00
  TRACK 09 MODE1/2352
    INDEX 00 21:26:18
    INDEX 01 21:29:17

REM DISC HASHES
REM CRC32 : 330a11da
REM MD5   : fcfc2d2baff391280c6628c6183399d4
REM SHA1  : 644491f7cf351b67be6f20ed02e3ff63e97ab553

REM Gap Append Method: Prev [crc32]
REM Trk 01: ab995913
REM Trk 02: 2d02b230
REM Trk 03: 0c051919
REM Trk 04: a62f4d54
REM Trk 05: f22c6b2a
REM Trk 06: 3ae43ac0
REM Trk 07: 0b0b4d53
REM Trk 08: e8eb7975
REM Trk 09: 59c09788

REM Gap Append Method: Prev [md5]
REM Trk 01: f49c6e531da10a7cf401bee2d14185b3
REM Trk 02: f631a0f9bcdfda05ff085c09590ffa9c
REM Trk 03: dd7b92b84292d57d184d7b2df4f895e6
REM Trk 04: ac5d41d6851c5db4a7b30f137506faa8
REM Trk 05: 97b6d09ef85df479b2b342b64cd43423
REM Trk 06: 9021d6e01d118cc74ec46e8a12bd4ede
REM Trk 07: 11f0e5bab7997c14fffccfb017be5877
REM Trk 08: aec2f3d3fa6bccbaa67bd780678c84c3
REM Trk 09: 45f7a60eab43f51f68a3cbe4c706aeed

REM Gap Append Method: Prev [sha1]
REM Trk 01: cd141a1c1ae4f300b0f4987aa3d93f8d12b1c0b3
REM Trk 02: 16cc9d08007a533f0dd0a8b586b743a8286c4830
REM Trk 03: 8440643a9e2f12078faaab3adff0f360a8cb1a3f
REM Trk 04: fd4c83db54428d2c965e551a602ae881dbee53c2
REM Trk 05: 6fb9eaa3178d905b5ba5e022ce8bdd7a656255c2
REM Trk 06: 3ad7b1e7b4b96a233c8336a88df9e97f9582a824
REM Trk 07: 97f797870900f8c8671896313fbdde231c731582
REM Trk 08: b74b283b42ca6876133af41e6cc4b6be5b734dfc
REM Trk 09: 79bb1bdc14268d9987e9cbc800cd30ac6d3646ed

REM Gap Append Method: None [crc32]
REM Trk 01: 8f2aa8ba
REM Gap 02: 827af62a
REM Trk 02: ec191f3d
REM Gap 03: 7abe247f
REM Trk 03: 0c051919
REM Trk 04: a62f4d54
REM Trk 05: f22c6b2a
REM Trk 06: 3ae43ac0
REM Trk 07: 0b0b4d53
REM Trk 08: e0c8c6d4
REM Gap 09: 4355f1dc
REM Trk 09: 59c09788

REM Gap Append Method: None [md5]
REM Trk 01: 7020f1c3fc3dc9a8f8465702dbc1d104
REM Gap 02: 81b839ffd4ac0e6f7233b24c50c2b29a
REM Trk 02: 3eb0fe9d36345aa7907d9a64f0ff6c0e
REM Gap 03: 9df204fbc98bb8965081cb30a89715fc
REM Trk 03: dd7b92b84292d57d184d7b2df4f895e6
REM Trk 04: ac5d41d6851c5db4a7b30f137506faa8
REM Trk 05: 97b6d09ef85df479b2b342b64cd43423
REM Trk 06: 9021d6e01d118cc74ec46e8a12bd4ede
REM Trk 07: 11f0e5bab7997c14fffccfb017be5877
REM Trk 08: 86d22ca0d81929c3313417662b52f0a0
REM Gap 09: 2304fc1632f20923322b45f68150b955
REM Trk 09: 45f7a60eab43f51f68a3cbe4c706aeed

REM Gap Append Method: None [sha1]
REM Trk 01: 53468813421e7677adf04f3208a3d52167f342bc
REM Gap 02: a5591b4b16bfa8856e500cde408ad601734109d8
REM Trk 02: 9dd5babcc4945f273fe9f60c0c2dd7bf9f1209c2
REM Gap 03: cbe29e0bd725ef1194f8c47619dd42078e841de2
REM Trk 03: 8440643a9e2f12078faaab3adff0f360a8cb1a3f
REM Trk 04: fd4c83db54428d2c965e551a602ae881dbee53c2
REM Trk 05: 6fb9eaa3178d905b5ba5e022ce8bdd7a656255c2
REM Trk 06: 3ad7b1e7b4b96a233c8336a88df9e97f9582a824
REM Trk 07: 97f797870900f8c8671896313fbdde231c731582
REM Trk 08: 2a977ffaa0a091759daf0fd904cba3d219087bfe
REM Gap 09: 1ef15695c06fffacacb774bbe385c4c631848879
REM Trk 09: 79bb1bdc14268d9987e9cbc800cd30ac6d3646ed

REM Gap Append Method: Next [crc32]
REM Trk 01: 8f2aa8ba
REM Trk 02: 2804c1a2
REM Trk 03: a91f6b83
REM Trk 04: a62f4d54
REM Trk 05: f22c6b2a
REM Trk 06: 3ae43ac0
REM Trk 07: 0b0b4d53
REM Trk 08: e0c8c6d4
REM Trk 09: 40e11679

REM Gap Append Method: Next [md5]
REM Trk 01: 7020f1c3fc3dc9a8f8465702dbc1d104
REM Trk 02: 315327a2953cd98cfa86f949004826d7
REM Trk 03: d4820d136cb8bedbc8d39c251eb02772
REM Trk 04: ac5d41d6851c5db4a7b30f137506faa8
REM Trk 05: 97b6d09ef85df479b2b342b64cd43423
REM Trk 06: 9021d6e01d118cc74ec46e8a12bd4ede
REM Trk 07: 11f0e5bab7997c14fffccfb017be5877
REM Trk 08: 86d22ca0d81929c3313417662b52f0a0
REM Trk 09: e05c8fc9657436c5853893511e7c1849

REM Gap Append Method: Next [sha1]
REM Trk 01: 53468813421e7677adf04f3208a3d52167f342bc
REM Trk 02: 40db2da177bf384cf391e18e6ee5fd2707d2e928
REM Trk 03: 4b04576f1cc36d6a79b624313ee48ad908b62a13
REM Trk 04: fd4c83db54428d2c965e551a602ae881dbee53c2
REM Trk 05: 6fb9eaa3178d905b5ba5e022ce8bdd7a656255c2
REM Trk 06: 3ad7b1e7b4b96a233c8336a88df9e97f9582a824
REM Trk 07: 97f797870900f8c8671896313fbdde231c731582
REM Trk 08: 2a977ffaa0a091759daf0fd904cba3d219087bfe
REM Trk 09: 1295f64e9a8ba2b77e84b7e8bdc5de41d2e19a40

